<svg width="48" height="48" viewBox="0 0 48 48" fill="none" xmlns="http://www.w3.org/2000/svg">
<mask id="path-1-inside-1_10_1401" fill="white">
<path d="M0 24C0 10.7452 10.7452 0 24 0C37.2548 0 48 10.7452 48 24C48 37.2548 37.2548 48 24 48C10.7452 48 0 37.2548 0 24Z"/>
</mask>
<path d="M0 24M48 24M48 24M0 24M24 0M48 24M24 48M0 24M24 48V47.2C11.187 47.2 0.8 36.813 0.8 24H0H-0.8C-0.8 37.6967 10.3033 48.8 24 48.8V48ZM48 24H47.2C47.2 36.813 36.813 47.2 24 47.2V48V48.8C37.6967 48.8 48.8 37.6967 48.8 24H48ZM24 0V0.8C36.813 0.8 47.2 11.187 47.2 24H48H48.8C48.8 10.3033 37.6967 -0.8 24 -0.8V0ZM24 0V-0.8C10.3033 -0.8 -0.8 10.3033 -0.8 24H0H0.8C0.8 11.187 11.187 0.8 24 0.8V0Z" fill="#D6B55F" mask="url(#path-1-inside-1_10_1401)"/>
<path d="M30.6663 24.8333C30.6663 29 27.7497 31.0833 24.283 32.2916C24.1015 32.3531 23.9043 32.3502 23.7247 32.2833C20.2497 31.0833 17.333 29 17.333 24.8333V19C17.333 18.779 17.4208 18.567 17.5771 18.4107C17.7334 18.2544 17.9453 18.1666 18.1663 18.1666C19.833 18.1666 21.9163 17.1666 23.3663 15.9C23.5429 15.7491 23.7675 15.6663 23.9997 15.6663C24.2319 15.6663 24.4565 15.7491 24.633 15.9C26.0913 17.175 28.1663 18.1666 29.833 18.1666C30.054 18.1666 30.266 18.2544 30.4223 18.4107C30.5785 18.567 30.6663 18.779 30.6663 19V24.8333Z" stroke="#D6B55F" stroke-width="1.25" stroke-linecap="round" stroke-linejoin="round"/>
</svg>
