<svg width="48" height="48" viewBox="0 0 48 48" fill="none" xmlns="http://www.w3.org/2000/svg">
<mask id="path-1-inside-1_10_1409" fill="white">
<path d="M0 24C0 10.7452 10.7452 0 24 0C37.2548 0 48 10.7452 48 24C48 37.2548 37.2548 48 24 48C10.7452 48 0 37.2548 0 24Z"/>
</mask>
<path d="M0 24M48 24M48 24M0 24M24 0M48 24M24 48M0 24M24 48V47.2C11.187 47.2 0.8 36.813 0.8 24H0H-0.8C-0.8 37.6967 10.3033 48.8 24 48.8V48ZM48 24H47.2C47.2 36.813 36.813 47.2 24 47.2V48V48.8C37.6967 48.8 48.8 37.6967 48.8 24H48ZM24 0V0.8C36.813 0.8 47.2 11.187 47.2 24H48H48.8C48.8 10.3033 37.6967 -0.8 24 -0.8V0ZM24 0V-0.8C10.3033 -0.8 -0.8 10.3033 -0.8 24H0H0.8C0.8 11.187 11.187 0.8 24 0.8V0Z" fill="#D6B55F" mask="url(#path-1-inside-1_10_1409)"/>
<path d="M25.667 28.9999V18.9999C25.667 18.5579 25.4914 18.134 25.1788 17.8214C24.8663 17.5088 24.4424 17.3333 24.0003 17.3333H17.3337C16.8916 17.3333 16.4677 17.5088 16.1551 17.8214C15.8426 18.134 15.667 18.5579 15.667 18.9999V28.1666C15.667 28.3876 15.7548 28.5996 15.9111 28.7558C16.0674 28.9121 16.2793 28.9999 16.5003 28.9999H18.167" stroke="#D6B55F" stroke-width="1.25" stroke-linecap="round" stroke-linejoin="round"/>
<path d="M26.5 29H21.5" stroke="#D6B55F" stroke-width="1.25" stroke-linecap="round" stroke-linejoin="round"/>
<path d="M29.8337 29.0001H31.5003C31.7213 29.0001 31.9333 28.9123 32.0896 28.756C32.2459 28.5997 32.3337 28.3878 32.3337 28.1667V25.1251C32.3333 24.936 32.2687 24.7526 32.1503 24.6051L29.2503 20.9801C29.1724 20.8825 29.0735 20.8036 28.961 20.7494C28.8485 20.6952 28.7252 20.6669 28.6003 20.6667H25.667" stroke="#D6B55F" stroke-width="1.25" stroke-linecap="round" stroke-linejoin="round"/>
<path d="M28.1667 30.6666C29.0871 30.6666 29.8333 29.9204 29.8333 28.9999C29.8333 28.0794 29.0871 27.3333 28.1667 27.3333C27.2462 27.3333 26.5 28.0794 26.5 28.9999C26.5 29.9204 27.2462 30.6666 28.1667 30.6666Z" stroke="#D6B55F" stroke-width="1.25" stroke-linecap="round" stroke-linejoin="round"/>
<path d="M19.8337 30.6666C20.7541 30.6666 21.5003 29.9204 21.5003 28.9999C21.5003 28.0794 20.7541 27.3333 19.8337 27.3333C18.9132 27.3333 18.167 28.0794 18.167 28.9999C18.167 29.9204 18.9132 30.6666 19.8337 30.6666Z" stroke="#D6B55F" stroke-width="1.25" stroke-linecap="round" stroke-linejoin="round"/>
</svg>
