<svg width="53" height="29" viewBox="0 0 53 29" fill="none" xmlns="http://www.w3.org/2000/svg">
<path d="M6.36 16.08C5.94667 16.08 5.43333 16.06 4.82 16.02C4.20667 15.98 3.64667 15.96 3.14 15.96C2.66 15.96 2.20667 15.9667 1.78 15.98C1.35333 15.9933 0.973333 16 0.64 16C0.613333 16 0.6 15.96 0.6 15.88C0.6 15.8 0.613333 15.76 0.64 15.76C1.06667 15.76 1.39333 15.7267 1.62 15.66C1.84667 15.5933 1.99333 15.46 2.06 15.26C2.14 15.06 2.18 14.7667 2.18 14.38V5.12C2.18 4.73333 2.14 4.44667 2.06 4.26C1.99333 4.06 1.85333 3.92667 1.64 3.86C1.42667 3.78 1.1 3.74 0.66 3.74C0.633333 3.74 0.62 3.7 0.62 3.62C0.62 3.54 0.633333 3.5 0.66 3.5C1.00667 3.5 1.38667 3.51333 1.8 3.54C2.21333 3.55333 2.66 3.56 3.14 3.56C3.60667 3.56 4.11333 3.54667 4.66 3.52C5.22 3.48 5.69333 3.46 6.08 3.46C7.48 3.46 8.7 3.72667 9.74 4.26C10.78 4.79333 11.5867 5.52 12.16 6.44C12.7333 7.36 13.02 8.39333 13.02 9.54C13.02 10.54 12.8467 11.4467 12.5 12.26C12.1533 13.06 11.6667 13.7467 11.04 14.32C10.4267 14.88 9.71333 15.3133 8.9 15.62C8.1 15.9267 7.25333 16.08 6.36 16.08ZM6.16 15.68C7.08 15.68 7.89333 15.46 8.6 15.02C9.30667 14.58 9.86 13.94 10.26 13.1C10.6733 12.2467 10.88 11.2067 10.88 9.98C10.88 8.83333 10.6933 7.8 10.32 6.88C9.94667 5.94667 9.41333 5.21333 8.72 4.68C8.04 4.13333 7.22667 3.86 6.28 3.86C5.49333 3.86 4.92667 3.93333 4.58 4.08C4.24667 4.22667 4.08 4.58667 4.08 5.16V14.16C4.08 14.68 4.21333 15.0667 4.48 15.32C4.74667 15.56 5.30667 15.68 6.16 15.68ZM16.9039 13.34C16.9039 12.7933 17.0439 12.3067 17.3239 11.88C17.6039 11.44 17.9706 11.0333 18.4239 10.66C18.8772 10.2867 19.3572 9.92 19.8639 9.56C20.3706 9.18667 20.8506 8.8 21.3039 8.4C21.7572 8 22.1239 7.56 22.4039 7.08C22.6839 6.6 22.8239 6.06 22.8239 5.46C22.8239 4.86 22.6772 4.4 22.3839 4.08C22.0906 3.74667 21.7172 3.58 21.2639 3.58C20.8506 3.58 20.5439 3.71333 20.3439 3.98C20.1439 4.24667 20.0439 4.64667 20.0439 5.18C20.0439 5.9 20.2039 6.63333 20.5239 7.38C20.8439 8.12667 21.2772 8.86 21.8239 9.58C22.3839 10.3 23.0039 10.9933 23.6839 11.66C24.3772 12.3133 25.0906 12.9133 25.8239 13.46C26.7439 14.14 27.5572 14.6733 28.2639 15.06C28.9706 15.4333 29.5172 15.6667 29.9039 15.76C29.9706 15.7733 29.9972 15.82 29.9839 15.9C29.9706 15.9667 29.9439 16 29.9039 16C29.5306 16 29.0839 16 28.5639 16C28.0572 16 27.5439 16 27.0239 16C26.8639 16 26.6572 15.9467 26.4039 15.84C26.1506 15.7333 25.8172 15.5467 25.4039 15.28C24.9906 15 24.4572 14.6 23.8039 14.08C23.2172 13.6 22.6106 13.0667 21.9839 12.48C21.3572 11.88 20.7772 11.2667 20.2439 10.64C19.7239 10 19.3039 9.37333 18.9839 8.76C18.8106 8.41333 18.6706 8.06667 18.5639 7.72C18.4572 7.37333 18.4039 7 18.4039 6.6C18.4039 5.93333 18.5506 5.33333 18.8439 4.8C19.1506 4.26667 19.5772 3.84667 20.1239 3.54C20.6706 3.23333 21.3172 3.08 22.0639 3.08C22.5439 3.08 22.9772 3.15333 23.3639 3.3C23.7506 3.44667 24.0572 3.66667 24.2839 3.96C24.5106 4.24 24.6239 4.61333 24.6239 5.08C24.6239 5.62667 24.4772 6.10667 24.1839 6.52C23.9039 6.93333 23.5372 7.31333 23.0839 7.66C22.6306 8.00667 22.1506 8.34667 21.6439 8.68C21.1372 9.01333 20.6572 9.36 20.2039 9.72C19.7506 10.0667 19.3772 10.4533 19.0839 10.88C18.8039 11.3067 18.6639 11.8 18.6639 12.36C18.6639 12.88 18.8106 13.3733 19.1039 13.84C19.3972 14.2933 19.8106 14.6667 20.3439 14.96C20.8772 15.2533 21.5106 15.4 22.2439 15.4C22.8172 15.4 23.3239 15.3 23.7639 15.1C24.2172 14.8867 24.5906 14.6 24.8839 14.24C25.1906 13.8667 25.4172 13.4267 25.5639 12.92C25.7239 12.4 25.8039 11.8333 25.8039 11.22C25.8039 10.5667 25.6906 10.08 25.4639 9.76C25.2506 9.42667 24.8439 9.26 24.2439 9.26C24.2172 9.26 24.1972 9.22 24.1839 9.14C24.1839 9.06 24.2039 9.02 24.2439 9.02L28.8039 9C28.8572 9 28.8839 9.04 28.8839 9.12C28.8839 9.2 28.8572 9.24 28.8039 9.24C28.3906 9.24 28.0772 9.28667 27.8639 9.38C27.6506 9.47333 27.4972 9.62 27.4039 9.82C27.3106 10.02 27.2106 10.2933 27.1039 10.64C26.9972 11.0533 26.8506 11.5133 26.6639 12.02C26.4772 12.5133 26.2372 13.0067 25.9439 13.5C25.6506 13.9933 25.2772 14.4533 24.8239 14.88C24.3839 15.2933 23.8372 15.6267 23.1839 15.88C22.5439 16.12 21.7906 16.24 20.9239 16.24C19.9906 16.24 19.2239 16.1 18.6239 15.82C18.0372 15.54 17.6039 15.18 17.3239 14.74C17.0439 14.2867 16.9039 13.82 16.9039 13.34ZM33.7436 13.58L33.9436 3.96L34.4836 4L34.2636 13.58C34.2503 14.2867 34.3836 14.8267 34.6636 15.2C34.9569 15.5733 35.3903 15.76 35.9636 15.76C36.0036 15.76 36.0236 15.8 36.0236 15.88C36.0236 15.96 36.0036 16 35.9636 16C35.6703 16 35.3703 15.9933 35.0636 15.98C34.7569 15.9667 34.4103 15.96 34.0236 15.96C33.6236 15.96 33.2569 15.9667 32.9236 15.98C32.6036 15.9933 32.2969 16 32.0036 16C31.9636 16 31.9436 15.96 31.9436 15.88C31.9436 15.8 31.9636 15.76 32.0036 15.76C32.5503 15.76 32.9703 15.5733 33.2636 15.2C33.5703 14.8267 33.7303 14.2867 33.7436 13.58ZM47.9036 15.76C47.9303 15.76 47.9436 15.8 47.9436 15.88C47.9436 15.96 47.9303 16 47.9036 16C47.5569 16 47.1703 15.9933 46.7436 15.98C46.3169 15.9667 45.8703 15.96 45.4036 15.96C44.9369 15.96 44.4969 15.9667 44.0836 15.98C43.6836 15.9933 43.3169 16 42.9836 16C42.9569 16 42.9436 15.96 42.9436 15.88C42.9436 15.8 42.9569 15.76 42.9836 15.76C43.6236 15.76 44.0369 15.6733 44.2236 15.5C44.4103 15.3267 44.4836 14.9533 44.4436 14.38L44.0236 5.24L44.9036 3.86L39.7836 15.86C39.7703 15.9133 39.7169 15.94 39.6236 15.94C39.5303 15.94 39.4703 15.9133 39.4436 15.86L34.0236 5.16C33.5436 4.21333 32.9169 3.74 32.1436 3.74C32.1036 3.74 32.0836 3.7 32.0836 3.62C32.0836 3.54 32.1036 3.5 32.1436 3.5C32.3969 3.5 32.6636 3.50667 32.9436 3.52C33.2369 3.53333 33.4836 3.54 33.6836 3.54C33.9769 3.54 34.2369 3.53333 34.4636 3.52C34.7036 3.50667 34.8903 3.5 35.0236 3.5C35.2103 3.5 35.3503 3.56667 35.4436 3.7C35.5503 3.82 35.7169 4.1 35.9436 4.54L40.4436 13.36L39.5836 14.88L44.3236 4C44.4036 3.82667 44.4903 3.7 44.5836 3.62C44.6769 3.54 44.7903 3.5 44.9236 3.5C45.0436 3.5 45.1703 3.50667 45.3036 3.52C45.4503 3.53333 45.6236 3.54 45.8236 3.54C46.2236 3.54 46.5636 3.53333 46.8436 3.52C47.1236 3.50667 47.3969 3.5 47.6636 3.5C47.7036 3.5 47.7236 3.54 47.7236 3.62C47.7236 3.7 47.7036 3.74 47.6636 3.74C47.0503 3.74 46.5969 3.85333 46.3036 4.08C46.0103 4.30667 45.8769 4.69333 45.9036 5.24L46.3436 14.38C46.3703 14.7667 46.4169 15.06 46.4836 15.26C46.5636 15.46 46.7103 15.5933 46.9236 15.66C47.1503 15.7267 47.4769 15.76 47.9036 15.76Z" fill="#D6B55F"/>
<path d="M3.26314 21.4545H4.24751V26.0952C4.24751 26.5149 4.16442 26.8739 3.99822 27.1722C3.83416 27.4705 3.60298 27.6985 3.30469 27.8562C3.00639 28.0117 2.65696 28.0895 2.25639 28.0895C1.88778 28.0895 1.55646 28.0224 1.26243 27.8881C0.970526 27.7539 0.739347 27.5589 0.568892 27.3033C0.400568 27.0455 0.316406 26.7322 0.316406 26.3636H1.29759C1.29759 26.5447 1.33913 26.7013 1.42223 26.8335C1.50746 26.9656 1.62358 27.0689 1.7706 27.1435C1.91974 27.2159 2.0902 27.2521 2.28196 27.2521C2.49077 27.2521 2.66761 27.2085 2.8125 27.1211C2.95952 27.0316 3.07138 26.9006 3.14808 26.728C3.22479 26.5554 3.26314 26.3445 3.26314 26.0952V21.4545ZM7.48493 28V21.4545H11.5886V22.3047H8.4725V24.299H11.3745V25.146H8.4725V27.1499H11.627V28H7.48493ZM15.9894 28L14.174 21.4545H15.2127L16.488 26.5234H16.5487L17.875 21.4545H18.9042L20.2305 26.5266H20.2912L21.5632 21.4545H22.6051L20.7866 28H19.7926L18.4152 23.0973H18.364L16.9865 28H15.9894ZM25.3056 28V21.4545H29.4093V22.3047H26.2932V24.299H29.1952V25.146H26.2932V27.1499H29.4477V28H25.3056ZM32.5285 28V21.4545H33.5161V27.1499H36.482V28H32.5285ZM39.4086 28V21.4545H41.7417C42.2488 21.4545 42.6696 21.5419 43.0041 21.7166C43.3407 21.8913 43.5922 22.1332 43.7583 22.4421C43.9245 22.7489 44.0076 23.1037 44.0076 23.5064C44.0076 23.907 43.9235 24.2596 43.7551 24.5643C43.589 24.8668 43.3375 25.1023 43.0009 25.2706C42.6664 25.4389 42.2456 25.5231 41.7385 25.5231H39.9711V24.6729H41.649C41.9686 24.6729 42.2285 24.6271 42.4288 24.5355C42.6312 24.4439 42.7793 24.3107 42.873 24.136C42.9668 23.9613 43.0137 23.7514 43.0137 23.5064C43.0137 23.2592 42.9657 23.0451 42.8699 22.864C42.7761 22.6829 42.628 22.5444 42.4256 22.4485C42.2253 22.3505 41.9622 22.3015 41.6362 22.3015H40.3961V28H39.4086ZM42.6397 25.0469L44.2569 28H43.1319L41.5467 25.0469H42.6397ZM46.2671 21.4545H47.3889L49.0987 24.43H49.1691L50.8789 21.4545H52.0007L49.6261 25.4304V28H48.6417V25.4304L46.2671 21.4545Z" fill="#D9D9D3"/>
</svg>
