<svg width="40" height="40" viewBox="0 0 40 40" fill="none" xmlns="http://www.w3.org/2000/svg">
<mask id="path-1-inside-1_63_1214" fill="white">
<path d="M0 20C0 8.95431 8.95431 0 20 0V0C31.0457 0 40 8.95431 40 20V20C40 31.0457 31.0457 40 20 40V40C8.95431 40 0 31.0457 0 20V20Z"/>
</mask>
<path d="M0 20M40 20M40 20M0 20M20 0M40 20M20 40M0 20M20 40V39.2C9.39613 39.2 0.8 30.6039 0.8 20H0H-0.8C-0.8 31.4875 8.51248 40.8 20 40.8V40ZM40 20H39.2C39.2 30.6039 30.6039 39.2 20 39.2V40V40.8C31.4875 40.8 40.8 31.4875 40.8 20H40ZM20 0V0.8C30.6039 0.8 39.2 9.39613 39.2 20H40H40.8C40.8 8.51248 31.4875 -0.8 20 -0.8V0ZM20 0V-0.8C8.51248 -0.8 -0.8 8.51248 -0.8 20H0H0.8C0.8 9.39613 9.39613 0.8 20 0.8V0Z" fill="#D6B55F" mask="url(#path-1-inside-1_63_1214)"/>
<path d="M20.4 26.5326C21.64 25.4619 25.3327 21.9953 25.3327 18.6666C25.3327 17.2521 24.7708 15.8955 23.7706 14.8953C22.7704 13.8952 21.4138 13.3333 19.9993 13.3333C18.5849 13.3333 17.2283 13.8952 16.2281 14.8953C15.2279 15.8955 14.666 17.2521 14.666 18.6666C14.666 21.9953 18.3587 25.4619 19.5987 26.5326C19.7142 26.6194 19.8548 26.6664 19.9993 26.6664C20.1439 26.6664 20.2845 26.6194 20.4 26.5326Z" stroke="#D6B55F" stroke-linecap="round" stroke-linejoin="round"/>
<path d="M20 20.6667C21.1046 20.6667 22 19.7713 22 18.6667C22 17.5622 21.1046 16.6667 20 16.6667C18.8954 16.6667 18 17.5622 18 18.6667C18 19.7713 18.8954 20.6667 20 20.6667Z" stroke="#D6B55F" stroke-linecap="round" stroke-linejoin="round"/>
</svg>
